<svg xmlns="http://www.w3.org/2000/svg" width="272.7mm" height="56.83mm" viewBox="0 0 773.01 161.1"><defs><style>.a{fill:#fce1db;}</style></defs><title>howlong</title><path class="a" d="M167.41,86.07c0-9.12-7.42-15.26-16.54-15.26S134.44,77,134.44,86.07v29.26a2.39,2.39,0,0,1-.11.42,1.52,1.52,0,0,1-.21.42,2.43,2.43,0,0,1-1.59,1.27,0.37,0.37,0,0,1-.21.11h-0.53a2.89,2.89,0,0,1-2-.85,3.19,3.19,0,0,1-.42-0.85,2.34,2.34,0,0,1-.11-0.85V45.9a2.6,2.6,0,0,1,5.19,0V73.25a21.46,21.46,0,0,1,16.43-7.63c12,0,21.73,8.48,21.73,20.46V115a2.6,2.6,0,0,1-5.19,0V86.07Z"/><path class="a" d="M216.38,65.61c13.67,0,24.59,11.87,24.59,26s-10.92,26-24.59,26-24.59-11.87-24.59-26S202.81,65.61,216.38,65.61Zm0,46.85c10.6,0,19.5-9.33,19.5-20.88s-8.9-21-19.5-21-19.5,9.43-19.5,21S205.78,112.47,216.38,112.47Z"/><path class="a" d="M273.62,117.13a1.93,1.93,0,0,1-1.06-1.17l-19.5-46.43a2.58,2.58,0,0,1,1.27-3.29,2.5,2.5,0,0,1,3.29,1.38l17.28,40.92,12-28.51a2.8,2.8,0,0,1,2.44-1.59A2.83,2.83,0,0,1,291.85,80l12,28.51L321,67.63a2.58,2.58,0,0,1,3.29-1.38,2.54,2.54,0,0,1,1.38,3.29l-19.4,46.22a2.9,2.9,0,0,1-1,1.27,2.2,2.2,0,0,1-1.27.53h-0.53a2.43,2.43,0,0,1-2-1.59l-0.11-.11L289.31,87.13l-12,28.62a0.37,0.37,0,0,0-.11.21,2.5,2.5,0,0,1-2.23,1.59,3.09,3.09,0,0,1-1-.21A0.55,0.55,0,0,1,273.62,117.13Z"/><path class="a" d="M380,45.9a2.6,2.6,0,0,1,5.19,0V115a2.6,2.6,0,0,1-5.19,0V45.9Z"/><path class="a" d="M427.85,65.61c13.67,0,24.59,11.87,24.59,26s-10.92,26-24.59,26-24.59-11.87-24.59-26S414.28,65.61,427.85,65.61Zm0,46.85c10.6,0,19.5-9.33,19.5-20.88s-8.9-21-19.5-21-19.5,9.43-19.5,21S417.25,112.47,427.85,112.47Z"/><path class="a" d="M509,86.81a16,16,0,0,0-16-16,16.29,16.29,0,0,0-16.11,16v28.62a2.36,2.36,0,0,1-.53,1.17,2.27,2.27,0,0,1-1.91,1h-0.64a2.78,2.78,0,0,1-1.7-1.38,0.39,0.39,0,0,1-.11-0.32,0.37,0.37,0,0,0-.11-0.21V68.26a2.49,2.49,0,1,1,5,0v5a21.07,21.07,0,0,1,37.21,13.57V115a2.54,2.54,0,0,1-5.09,0V86.81Z"/><path class="a" d="M582.29,113.42A24.41,24.41,0,0,1,557.8,137.8,26.86,26.86,0,0,1,547,135.36a2.74,2.74,0,0,1-1.06-3.39,2.35,2.35,0,0,1,3.39-1.17,18.8,18.8,0,0,0,8.48,1.91,19.25,19.25,0,0,0,19.4-19.29v-6.36a23.53,23.53,0,0,1-19.4,10.18c-13.57,0-24.38-11.55-24.38-25.86,0-14,10.81-25.76,24.38-25.76a23.8,23.8,0,0,1,19.4,10.18V68.16a2.6,2.6,0,0,1,2.65-2.54,2.56,2.56,0,0,1,2.44,2.54v45.26Zm-5.09-22c0-11.55-8.69-20.67-19.4-20.67s-19.29,9.12-19.29,20.67,8.69,20.88,19.29,20.88S577.2,103,577.2,91.37Z"/><path class="a" d="M619,87.13V86.71a2.47,2.47,0,0,1,2.44-2.44,18,18,0,0,0,0-35.94,17.48,17.48,0,0,0-15.48,9,2.52,2.52,0,0,1-3.39.85,2.37,2.37,0,0,1-.85-3.39A22.55,22.55,0,0,1,621.4,43.35,22.92,22.92,0,0,1,623.95,89v11.34a2.49,2.49,0,0,1-5,0V87.13Zm0,25.65a2.49,2.49,0,1,1,5,0v2.33a2.49,2.49,0,0,1-5,0v-2.33Z"/></svg>