<?xml version="1.0" encoding="utf-8"?>
<!-- Generator: Adobe Illustrator 19.2.1, SVG Export Plug-In . SVG Version: 6.00 Build 0)  -->
<svg version="1.1" id="Layer_1" xmlns="http://www.w3.org/2000/svg" xmlns:xlink="http://www.w3.org/1999/xlink" x="0px" y="0px"
	 viewBox="0 0 946.9 579.9" style="enable-background:new 0 0 946.9 579.9;" xml:space="preserve">
<style type="text/css">
	.st0{fill:#E15D3E;}
	.st1{fill:#FCE1DB;}
	.st2{fill:none;stroke:#FCE1DB;stroke-width:7;stroke-miterlimit:10;}
	.st3{fill:none;}
	.st4{fill:#FCE1DB;stroke:#FCE1DB;stroke-miterlimit:10;}
</style>
<g>
	<polyline class="st2" points="18.5,579.9 18.5,263.8 928.5,263.8 928.5,579.9 	"/>
	<g transform="translate(0,-952.36218)">
		<g>
			<g>
				<g>
					<path class="st1" d="M844.9,1163.1h-20.3v-3.1c0-1.7-1.4-3.1-3.1-3.1h-100c-0.1,0-0.2,0-0.3,0c-1.6,0.2-2.8,1.5-2.8,3.1v3.1
						c0,15.8,6.9,30,17.8,39.8l7.3,5.4c8.1,5,17.7,8,28,8c10.3,0,19.9-2.9,28-7.9l7.3-5.5c1.3-1.2,2.6-2.4,3.8-3.7
						c10.4-1.9,19.4-5.6,26.1-10.8c6.9-5.3,11.4-12.4,11.4-20.3v-1.9C848,1164.5,846.6,1163.1,844.9,1163.1z M771.5,1210
						c-26,0-46.9-20.9-46.9-46.9h93.8C818.3,1189.1,797.5,1210,771.5,1210z M832.8,1183.4c-4.2,3.2-9.8,6-16.3,8
						c4.1-6.5,6.8-14,7.7-22h17.4C841.2,1174.4,838.2,1179.2,832.8,1183.4z"/>
				</g>
				<path class="st1" d="M735.8,1203l0.3-0.2C736,1202.8,735.9,1202.9,735.8,1203z"/>
			</g>
		</g>
	</g>
	<g>
		<path class="st3" d="M528.7,238.4h131V29.6c0-5.8-5.3-11.1-11.1-11.1H297.7c-5.8,0-11.1,5.3-11.1,11.1v208.8h131H528.7z"/>
		<path class="st4" d="M664.4,239V29.6c0-8.8-7-15.2-15.2-15.2H297.7c-8.8,0-15.2,7-15.2,15.2v208.8h-21.1V249c0,9.4,7.6,17,17,17
			h390.1c9.4,0,17-7.6,17-17V239H664.4z M286.6,29.6c0-5.8,5.3-11.1,11.1-11.1h350.9c5.8,0,11.1,5.3,11.1,11.1v208.8h-131H417.6
			h-131V29.6z M681.4,248.4c0,7-5.8,12.9-12.9,12.9H278.4c-7,0-12.9-5.8-12.9-12.9v-5.8h140.8h7.1h119.9h5.8h142.1V248.4z"/>
	</g>
</g>
</svg>
